<svg xmlns="http://www.w3.org/2000/svg" viewBox="0 0 18 18">
    <defs>
        <style>.a{fill:#fff;}</style>
    </defs>
    <path class="a" d="M15.857,9.429H14.571v3.429a1.719,1.719,0,0,1-1.714,1.714H9.429v1.286a2.143,2.143,0,0,1-4.286,0V14.571H1.714A1.712,1.712,0,0,1,.009,12.857V9.6H1.286a2.314,2.314,0,1,0,0-4.629H0V1.714A1.719,1.719,0,0,1,1.714,0H4.971V1.286a2.314,2.314,0,1,0,4.629,0V0h3.257a1.719,1.719,0,0,1,1.714,1.714V5.143h1.286a2.143,2.143,0,1,1,0,4.286Z" transform="translate(18 18) rotate(180)" />
</svg>