<svg xmlns="http://www.w3.org/2000/svg" width="72.286" height="66" viewBox="0 0 72.286 66">
  <path id="ic_add_a_photo_24px" d="M9.429,10.429V1h6.286v9.429h9.429v6.286H15.714v9.429H9.429V16.714H0V10.429Zm9.429,18.857V19.857h9.429V10.429h22l5.751,6.286H66A6.3,6.3,0,0,1,72.286,23V60.714A6.3,6.3,0,0,1,66,67H15.714a6.3,6.3,0,0,1-6.286-6.286V29.286Zm22,28.286A15.714,15.714,0,1,0,25.143,41.857,15.72,15.72,0,0,0,40.857,57.571ZM30.8,41.857A10.057,10.057,0,1,0,40.857,31.8,10.046,10.046,0,0,0,30.8,41.857Z" transform="translate(0 -1)" fill="#348b9c" opacity="0.38"/>
</svg>
